<?xml version="1.0" standalone="no"?>
<!DOCTYPE svg PUBLIC "-//W3C//DTD SVG 20010904//EN"
 "http://www.w3.org/TR/2001/REC-SVG-20010904/DTD/svg10.dtd">
<svg version="1.0" xmlns="http://www.w3.org/2000/svg"
 width="3200.000000pt" height="3200.000000pt" viewBox="0 0 3200.000000 3200.000000"
 preserveAspectRatio="xMidYMid meet">
<metadata>
Created by potrace 1.14, written by Peter Selinger 2001-2017
</metadata>
<g transform="translate(0.000000,3200.000000) scale(0.100000,-0.100000)"
fill="#000000" stroke="none">
<path d="M31992 31965 c0 -16 2 -22 5 -12 2 9 2 23 0 30 -3 6 -5 -1 -5 -18z"/>
<path d="M30715 24939 c-44 -11 -111 -25 -150 -33 -38 -7 -83 -19 -100 -26
-16 -7 -59 -18 -94 -26 -35 -7 -68 -18 -75 -23 -6 -5 -37 -16 -68 -24 -63 -16
-150 -68 -268 -158 -110 -84 -158 -106 -242 -114 -54 -5 -90 -2 -138 10 -36 9
-99 24 -140 34 -41 10 -106 28 -145 40 -78 23 -426 71 -519 71 -61 0 -349 -25
-396 -35 -14 -3 -72 -9 -130 -14 -58 -6 -130 -19 -160 -29 -31 -11 -118 -31
-193 -46 -76 -15 -174 -39 -220 -55 -45 -16 -147 -50 -227 -76 -166 -55 -260
-90 -380 -145 -145 -65 -179 -80 -184 -80 -3 0 -47 -20 -98 -44 -51 -24 -111
-49 -133 -56 -81 -26 -385 -182 -555 -286 -226 -137 -259 -159 -360 -245 -200
-167 -413 -343 -544 -447 -267 -214 -389 -327 -1000 -927 -175 -172 -647 -691
-822 -903 -38 -46 -102 -123 -141 -170 -40 -48 -98 -121 -130 -162 -31 -41
-80 -102 -108 -135 -235 -275 -742 -1015 -1098 -1605 -71 -118 -138 -226 -147
-240 -19 -27 -87 -147 -153 -270 -22 -41 -72 -129 -112 -195 -105 -175 -203
-360 -401 -755 -37 -74 -154 -329 -154 -335 0 -3 -27 -62 -61 -132 -33 -71
-81 -175 -105 -233 -25 -58 -49 -115 -54 -127 -22 -51 -34 -81 -159 -398 -71
-181 -153 -395 -181 -475 -29 -80 -63 -174 -75 -210 -31 -85 -130 -402 -145
-460 -6 -25 -17 -62 -25 -82 -8 -21 -21 -68 -30 -105 -8 -38 -26 -108 -39
-158 -29 -104 -43 -160 -84 -340 -17 -71 -38 -161 -47 -200 -9 -38 -23 -102
-30 -142 -7 -40 -18 -87 -23 -105 -6 -18 -16 -64 -23 -103 -6 -38 -22 -119
-35 -180 -12 -60 -25 -139 -29 -175 -4 -36 -15 -117 -26 -180 -10 -63 -23
-186 -28 -272 -5 -87 -12 -162 -15 -167 -11 -18 -27 -183 -36 -386 -5 -115
-14 -262 -20 -325 -21 -233 -23 -427 -5 -575 9 -77 20 -207 25 -290 5 -82 16
-179 25 -215 9 -36 22 -112 30 -170 28 -203 81 -379 175 -575 85 -179 164
-295 287 -421 151 -155 288 -243 500 -322 155 -59 178 -62 438 -69 266 -6 552
9 705 37 177 32 303 59 355 75 28 8 95 26 150 41 125 32 340 101 380 122 17 8
77 32 135 53 114 40 265 103 283 117 7 5 41 19 77 32 36 12 70 26 75 30 6 4
72 39 147 78 75 38 157 84 181 101 25 17 57 35 72 41 14 5 52 28 85 50 32 22
61 40 65 40 3 0 36 20 73 44 37 24 86 55 108 68 89 50 266 174 504 353 30 22
87 63 125 90 249 174 352 269 960 878 613 614 882 902 1033 1107 47 63 95 129
108 145 101 132 158 202 196 243 42 44 192 240 267 348 97 139 274 405 349
524 47 74 110 173 140 220 31 47 90 146 132 220 42 74 81 144 88 155 6 11 33
65 60 120 27 55 54 110 60 123 28 54 32 63 32 77 0 9 13 43 28 78 16 34 34 85
41 112 7 28 26 93 41 145 74 244 82 307 77 580 -4 205 -7 245 -26 310 -35 119
-74 188 -154 275 -74 79 -74 80 -101 65 -34 -18 -89 -83 -149 -175 -44 -69
-314 -610 -377 -755 -51 -120 -55 -128 -119 -267 -34 -72 -61 -135 -61 -139 0
-27 -465 -948 -560 -1109 -25 -44 -82 -143 -125 -219 -43 -76 -97 -167 -120
-201 -23 -34 -63 -97 -89 -141 -156 -263 -527 -790 -651 -925 -33 -36 -109
-127 -170 -203 -365 -456 -617 -711 -935 -944 -63 -47 -140 -103 -170 -127
-171 -131 -577 -355 -860 -474 -69 -29 -159 -68 -200 -87 -75 -34 -165 -55
-405 -94 -239 -40 -419 -14 -634 91 -116 57 -132 68 -227 162 -167 167 -259
331 -342 617 -38 128 -81 391 -92 560 -5 69 -14 159 -20 200 -13 83 -10 198
14 475 9 99 16 216 16 260 0 44 5 98 10 120 15 65 40 288 40 354 0 34 13 130
29 214 16 83 39 208 51 277 20 117 40 222 61 315 46 207 70 306 99 405 30 103
80 294 80 307 0 6 13 51 28 100 16 48 53 162 82 253 29 91 70 210 90 265 21
55 41 111 45 125 4 14 18 52 32 85 32 76 38 92 53 135 7 19 18 49 26 65 7 17
25 64 39 105 15 41 40 103 56 136 16 34 29 67 29 73 0 6 12 36 26 68 14 32 32
78 41 103 8 25 30 77 48 115 18 39 56 124 85 190 85 193 204 442 262 545 81
145 187 346 238 453 86 179 257 502 282 534 5 6 28 46 52 90 76 139 98 177
121 208 12 17 41 66 65 110 24 44 75 132 113 195 39 63 97 160 130 215 133
222 732 1118 861 1287 28 36 76 102 106 145 30 43 100 136 155 206 55 71 116
150 135 176 19 27 89 115 154 197 66 82 143 178 172 214 29 36 96 112 149 170
54 58 138 150 188 205 50 55 141 154 203 220 61 66 124 136 140 155 68 83 413
424 568 564 337 301 462 409 516 450 30 22 73 55 94 73 22 18 45 33 51 33 6 0
37 18 69 40 31 22 59 40 61 40 2 0 39 22 82 49 43 26 96 57 118 68 78 38 240
127 267 145 14 10 35 18 47 18 11 0 35 9 53 20 18 11 41 20 51 20 10 0 45 12
79 26 34 14 93 32 132 39 39 8 103 21 142 30 46 9 131 15 240 16 274 1 393
-40 481 -168 38 -55 38 -56 38 -152 -1 -101 -5 -118 -72 -301 -48 -128 -88
-207 -204 -393 -55 -87 -99 -160 -99 -162 0 -2 -27 -47 -60 -99 -33 -53 -60
-97 -60 -99 0 -3 -25 -49 -56 -103 -31 -55 -96 -177 -145 -272 -49 -95 -125
-235 -168 -311 -76 -133 -191 -363 -191 -382 0 -5 -4 -17 -9 -27 -5 -9 -47
-96 -92 -192 -45 -96 -86 -180 -90 -186 -10 -12 -86 -198 -131 -319 -70 -186
-140 -440 -169 -615 -30 -182 -23 -281 24 -328 l24 -24 76 16 c75 15 118 31
167 60 14 8 36 17 50 20 24 6 98 57 242 168 75 58 620 602 744 744 43 49 133
151 199 225 66 74 141 159 166 189 26 30 76 89 111 130 36 41 82 98 104 126
80 104 210 261 281 339 40 44 90 104 112 133 22 29 60 76 84 105 44 52 79 99
204 277 82 117 350 486 421 580 81 107 353 543 412 660 12 25 42 77 65 115
108 179 175 346 235 590 46 184 47 223 11 293 -11 21 -38 55 -60 75 l-41 37
-333 -1 c-288 -1 -343 -4 -412 -20z"/>
<path d="M9140 24679 c-118 -4 -283 -15 -366 -24 -84 -8 -217 -15 -297 -15
-156 0 -244 -9 -402 -40 -115 -22 -368 -60 -405 -60 -14 0 -74 -12 -135 -26
-60 -14 -138 -29 -171 -34 -34 -5 -102 -21 -150 -34 -49 -14 -143 -37 -209
-52 -66 -15 -149 -37 -184 -50 -35 -13 -72 -24 -82 -24 -11 0 -58 -13 -106
-30 -47 -16 -92 -30 -100 -30 -8 0 -32 -9 -54 -19 -22 -11 -54 -23 -72 -27
-18 -3 -52 -16 -77 -29 -25 -12 -67 -28 -95 -35 -27 -8 -63 -21 -80 -30 -16
-9 -43 -20 -60 -24 -48 -12 -213 -75 -290 -111 -38 -18 -97 -45 -130 -59 -33
-15 -105 -52 -160 -83 -55 -31 -140 -79 -190 -107 -361 -203 -767 -594 -938
-906 -70 -128 -139 -320 -194 -535 -23 -93 -28 -135 -31 -275 -3 -157 -2 -171
27 -284 17 -65 31 -129 31 -141 0 -21 11 -54 62 -180 121 -300 307 -557 553
-764 142 -121 478 -366 554 -405 86 -45 282 -101 392 -112 61 -6 68 -5 78 14
6 11 11 32 11 45 0 31 -55 175 -119 310 -62 133 -140 332 -162 417 -6 25 -18
59 -25 76 -22 51 -64 297 -70 413 -7 122 9 387 31 511 16 92 59 228 111 357
19 45 34 86 34 90 1 25 107 211 189 332 131 196 411 483 621 637 347 255 484
339 790 483 204 95 714 251 940 287 47 7 119 22 160 33 41 11 95 21 120 21 25
0 128 11 229 25 169 23 213 25 569 25 212 0 426 -5 476 -10 50 -6 147 -18 216
-26 174 -20 578 -108 745 -163 395 -128 661 -245 844 -371 283 -194 412 -338
575 -644 77 -144 104 -220 167 -466 5 -19 9 -188 9 -375 0 -265 -3 -357 -15
-415 -9 -41 -22 -111 -30 -155 -50 -266 -166 -560 -348 -879 -74 -131 -143
-226 -335 -463 -218 -271 -317 -365 -657 -623 -82 -62 -166 -126 -185 -140
-45 -34 -173 -127 -320 -231 -95 -68 -353 -229 -366 -229 -2 0 -86 -41 -188
-90 -102 -50 -255 -119 -341 -155 -86 -36 -173 -74 -194 -84 -20 -11 -55 -23
-76 -27 -22 -4 -62 -18 -90 -30 -27 -13 -56 -24 -63 -24 -7 0 -37 -11 -65 -24
-29 -13 -71 -27 -95 -31 -24 -4 -68 -16 -98 -26 -30 -11 -89 -24 -132 -29 -42
-6 -108 -17 -147 -25 -184 -38 -343 -67 -449 -80 -100 -13 -199 -78 -225 -148
-7 -17 -11 -131 -11 -293 0 -185 -5 -298 -15 -372 -9 -59 -20 -137 -25 -174
-6 -37 -10 -273 -10 -526 0 -428 1 -466 21 -568 20 -102 22 -155 30 -784 4
-371 13 -709 18 -750 6 -41 15 -212 20 -380 13 -403 19 -491 61 -861 6 -47 10
-114 10 -150 0 -35 11 -134 24 -219 14 -85 30 -215 36 -288 6 -73 14 -143 19
-155 5 -12 11 -58 15 -102 8 -97 59 -430 88 -575 11 -58 26 -146 33 -195 6
-50 17 -99 22 -110 6 -11 14 -47 18 -80 7 -57 74 -337 109 -455 8 -30 27 -100
40 -155 27 -112 76 -257 131 -385 20 -47 45 -107 56 -135 12 -27 24 -54 29
-60 4 -5 67 -129 140 -274 127 -254 135 -266 212 -347 79 -82 176 -154 308
-229 84 -47 347 -175 361 -175 6 0 34 -11 64 -25 79 -36 144 -50 485 -106 213
-35 273 -38 420 -23 220 22 263 40 290 120 20 58 -28 150 -136 264 -177 186
-328 422 -516 807 -108 219 -149 319 -193 468 -14 50 -37 126 -50 170 -13 44
-29 109 -35 145 -11 64 -20 97 -80 277 -16 50 -30 104 -30 121 0 16 -7 51 -16
78 -8 27 -23 92 -34 144 -35 181 -52 266 -76 385 -13 66 -28 152 -34 191 -5
40 -14 82 -19 95 -5 13 -14 67 -21 119 -6 52 -21 135 -31 184 -11 50 -22 126
-25 170 -3 45 -16 155 -29 246 -13 91 -29 217 -35 280 -6 63 -15 142 -20 176
-6 33 -14 132 -20 220 -5 87 -19 251 -31 364 -11 113 -24 311 -29 440 -4 129
-17 303 -28 385 -11 83 -23 215 -27 295 -3 80 -13 218 -21 308 -8 89 -14 222
-14 295 0 72 -7 238 -16 367 -8 129 -19 471 -24 760 -5 312 -12 541 -19 565
-17 63 -14 263 5 317 20 61 71 111 152 152 71 35 202 81 292 102 91 21 181 49
265 81 225 87 296 113 305 113 5 0 61 25 124 55 63 30 128 57 143 61 66 17
504 240 803 410 47 26 110 61 140 76 125 65 239 141 449 297 69 52 148 111
175 130 122 90 267 200 315 241 254 213 614 567 761 749 263 324 300 375 438
611 114 196 151 273 186 385 16 50 36 110 46 135 10 25 30 102 44 173 14 70
30 136 36 148 6 11 16 77 21 147 5 70 12 132 14 139 2 7 -1 96 -6 199 -9 167
-14 204 -50 342 -22 85 -48 173 -59 196 -10 22 -35 79 -55 126 -55 129 -187
309 -331 454 -111 112 -304 266 -421 335 -59 36 -135 81 -168 100 -132 79
-358 167 -705 274 -230 71 -286 87 -355 101 -38 8 -88 19 -110 25 -193 49
-587 126 -695 137 -36 3 -78 10 -95 15 -16 5 -86 15 -155 23 -69 9 -139 19
-156 24 -30 10 -160 23 -399 42 -71 6 -197 17 -280 25 -162 16 -466 17 -825 4z"/>
<path d="M20225 24655 c-71 -7 -196 -14 -277 -14 -156 -1 -274 -13 -348 -36
-25 -7 -70 -16 -100 -20 -72 -8 -234 -41 -340 -71 -47 -12 -107 -26 -135 -30
-127 -16 -386 -89 -520 -146 -83 -35 -89 -38 -275 -120 -80 -36 -172 -76 -204
-89 -102 -42 -341 -166 -393 -205 -17 -13 -34 -24 -37 -24 -3 0 -48 -27 -100
-60 -53 -33 -100 -60 -104 -60 -5 0 -15 -6 -21 -13 -6 -8 -32 -24 -58 -37
-157 -78 -632 -450 -783 -613 -119 -128 -279 -332 -374 -475 -89 -134 -122
-190 -203 -337 -6 -11 -18 -36 -26 -55 -8 -19 -29 -67 -45 -105 -37 -85 -92
-251 -120 -360 -11 -44 -29 -116 -40 -160 -27 -104 -38 -161 -51 -265 -6 -47
-18 -138 -26 -203 -10 -76 -15 -204 -15 -352 0 -255 16 -392 79 -670 45 -195
51 -224 65 -295 7 -36 37 -144 66 -240 29 -96 56 -193 61 -215 4 -22 29 -103
55 -180 26 -77 51 -156 55 -175 4 -19 17 -62 29 -95 11 -33 51 -152 89 -265
37 -113 74 -221 81 -240 7 -19 21 -57 30 -85 10 -27 29 -81 43 -120 49 -133
94 -260 125 -350 17 -49 52 -148 77 -220 25 -71 57 -166 71 -210 14 -44 43
-123 64 -175 82 -206 235 -680 275 -853 9 -37 24 -89 34 -115 24 -60 77 -245
86 -297 4 -22 15 -66 26 -98 10 -31 19 -67 19 -80 0 -12 13 -74 29 -137 16
-63 34 -145 40 -182 6 -36 18 -84 25 -106 8 -21 17 -70 21 -108 4 -38 13 -95
22 -128 8 -32 21 -117 29 -189 8 -72 18 -147 23 -166 28 -110 33 -209 29 -556
-4 -303 -8 -381 -25 -490 -12 -71 -24 -161 -28 -200 -3 -38 -15 -108 -26 -155
-78 -331 -138 -550 -180 -660 -11 -30 -27 -73 -35 -94 -41 -113 -203 -452
-292 -616 -62 -113 -271 -436 -356 -550 -110 -148 -409 -457 -536 -554 -114
-88 -425 -286 -449 -286 -9 0 -41 -14 -71 -31 -30 -17 -82 -40 -114 -51 -33
-11 -73 -29 -90 -38 -49 -28 -231 -77 -411 -111 -102 -19 -136 -20 -515 -17
l-405 4 -110 31 c-229 63 -362 124 -522 239 -118 85 -291 263 -370 381 -57 86
-147 255 -184 348 -76 188 -127 345 -135 415 -3 25 -12 71 -20 103 -8 32 -24
128 -35 215 -12 86 -25 189 -30 227 -19 149 -22 254 -10 424 15 218 57 613 71
677 6 27 15 82 20 124 15 125 136 654 191 835 34 114 85 283 100 335 6 19 14
44 19 55 5 11 15 40 23 65 24 70 74 205 90 242 9 18 25 62 37 98 13 36 35 101
50 145 15 44 35 107 45 140 9 33 21 69 26 80 43 94 62 221 41 275 -15 37 -62
77 -107 90 -85 25 -249 -20 -357 -98 -79 -56 -215 -210 -289 -327 -38 -60
-108 -164 -154 -230 -106 -151 -319 -469 -372 -555 -22 -36 -62 -101 -88 -145
-27 -44 -106 -172 -175 -285 -203 -329 -386 -645 -563 -975 -38 -71 -86 -159
-107 -195 -20 -36 -68 -121 -105 -190 -37 -69 -82 -152 -100 -185 -80 -147
-165 -324 -219 -453 -15 -34 -40 -92 -56 -128 -17 -35 -30 -67 -30 -69 0 -3
-16 -40 -36 -82 -20 -43 -45 -98 -56 -123 -11 -25 -26 -61 -35 -80 -8 -19 -21
-48 -28 -65 -7 -16 -28 -66 -48 -110 -58 -131 -69 -266 -38 -472 11 -74 50
-165 109 -252 72 -107 325 -315 522 -430 68 -40 320 -161 335 -161 3 0 25 -9
48 -19 74 -34 210 -88 287 -114 79 -27 412 -109 515 -127 33 -6 85 -17 115
-25 67 -19 228 -48 410 -75 74 -11 150 -24 168 -29 18 -6 88 -15 155 -21 67
-6 174 -18 237 -26 361 -46 549 -46 1005 1 77 8 172 17 210 20 39 3 104 12
145 19 41 8 107 19 145 26 39 6 108 20 155 30 47 10 103 21 125 25 22 3 81 16
130 30 92 24 210 54 324 80 36 9 69 19 75 24 6 4 34 13 61 20 52 12 133 42
246 92 36 16 70 29 76 29 6 0 35 11 64 24 30 13 110 47 179 76 122 52 317 152
371 191 15 10 31 19 36 19 6 0 36 17 69 38 32 21 113 67 179 102 65 34 140 78
165 95 25 18 61 40 80 50 19 10 55 34 80 54 25 20 59 45 75 56 65 40 438 325
570 435 77 64 190 166 251 226 120 119 397 442 484 567 30 43 78 108 105 145
191 253 356 566 496 937 17 44 37 100 45 125 8 25 19 54 24 65 5 11 13 36 19
55 5 19 22 73 36 120 14 47 30 111 35 143 5 32 18 95 29 140 28 110 59 315 71
454 5 62 16 150 24 195 48 264 50 504 6 828 -17 124 -39 279 -51 345 -11 66
-24 147 -30 180 -5 33 -19 98 -29 145 -11 47 -26 117 -34 155 -8 39 -20 90
-26 115 -7 25 -14 56 -16 70 -3 14 -16 63 -30 110 -14 47 -37 126 -51 175 -44
154 -103 346 -135 440 -32 96 -69 213 -98 310 -17 57 -44 137 -61 180 -10 27
-42 116 -69 190 -12 33 -26 69 -30 80 -38 95 -50 129 -50 139 0 7 -11 35 -25
63 -13 28 -27 64 -31 80 -4 15 -18 52 -31 81 -13 29 -44 108 -68 175 -24 67
-58 160 -75 207 -17 47 -34 94 -39 105 -5 11 -14 34 -19 50 -11 33 -12 34 -54
150 -16 44 -49 139 -74 210 -24 72 -47 137 -50 145 -27 64 -123 344 -159 465
-15 50 -37 122 -50 160 -12 39 -30 99 -39 135 -9 36 -40 153 -68 260 -75 290
-105 433 -138 655 -11 72 -22 136 -25 143 -3 8 -14 86 -25 175 -11 89 -27 209
-35 267 -17 124 -19 362 -4 463 24 165 61 378 70 409 6 18 15 49 19 68 16 66
87 255 127 335 106 213 234 385 450 603 151 153 284 264 393 329 77 46 344
175 402 194 33 11 71 27 83 35 12 8 41 18 66 23 24 5 73 16 109 25 93 22 359
58 537 72 143 12 464 -55 602 -126 211 -107 344 -272 421 -525 12 -38 28 -85
36 -102 7 -18 23 -79 34 -135 11 -57 28 -132 38 -168 14 -55 17 -113 17 -380
-1 -279 -3 -332 -24 -460 -12 -80 -26 -208 -31 -285 -5 -77 -16 -207 -25 -290
-8 -82 -16 -235 -17 -340 -3 -163 -1 -196 15 -230 24 -55 76 -89 122 -82 97
16 215 108 318 247 77 105 275 408 370 567 48 82 119 198 158 258 38 61 77
126 86 145 10 19 38 67 64 105 26 39 64 102 84 140 21 39 50 90 65 115 15 25
40 68 55 95 16 28 54 96 85 152 96 171 201 397 232 502 62 208 88 322 94 418
7 96 6 105 -22 170 -76 182 -205 313 -418 423 -50 26 -115 53 -144 60 -28 6
-54 16 -57 20 -3 5 -40 16 -83 25 -42 9 -97 23 -122 30 -43 13 -282 60 -435
84 -38 6 -106 18 -150 26 -225 42 -646 61 -850 40z"/>
<path d="M9250 23185 c-25 -8 -74 -23 -110 -33 -36 -11 -105 -38 -153 -62 -91
-43 -355 -216 -532 -348 -123 -92 -429 -400 -569 -572 -130 -160 -278 -355
-304 -400 -33 -60 -416 -663 -584 -920 -101 -154 -225 -356 -408 -665 -58 -99
-149 -250 -202 -335 -52 -85 -135 -222 -184 -305 -48 -82 -132 -221 -186 -307
-54 -87 -98 -159 -98 -162 0 -2 -32 -59 -71 -127 -40 -68 -80 -137 -89 -154
-28 -50 -163 -284 -222 -385 -30 -52 -75 -127 -100 -166 -42 -65 -138 -232
-226 -394 -19 -36 -43 -77 -54 -92 -10 -14 -18 -29 -18 -33 0 -3 -16 -31 -36
-62 -20 -31 -68 -115 -108 -187 -94 -168 -100 -180 -178 -311 -83 -140 -223
-388 -275 -485 -22 -41 -65 -118 -95 -170 -55 -95 -96 -169 -191 -350 -28 -52
-98 -174 -156 -270 -58 -97 -126 -213 -151 -258 -25 -46 -66 -120 -91 -165
-25 -45 -74 -136 -109 -202 -34 -66 -66 -124 -70 -130 -4 -5 -31 -55 -60 -110
-114 -216 -143 -270 -150 -280 -4 -5 -44 -80 -90 -165 -45 -85 -97 -182 -115
-215 -18 -33 -54 -100 -80 -150 -27 -49 -65 -119 -85 -155 -21 -36 -61 -112
-90 -170 -29 -58 -86 -163 -125 -235 -40 -71 -125 -233 -190 -360 -65 -126
-122 -235 -126 -240 -4 -6 -70 -136 -147 -290 -77 -154 -160 -315 -185 -358
-43 -72 -1037 -2058 -1037 -2071 0 -3 -30 -68 -66 -143 -143 -297 -195 -466
-198 -633 -1 -93 2 -109 22 -142 33 -52 91 -78 178 -78 48 0 77 5 93 16 13 9
42 21 65 26 22 5 61 18 86 30 259 118 367 188 705 458 186 148 881 842 1003
1001 81 105 141 185 186 244 76 103 339 503 436 665 51 85 112 184 135 220 46
71 56 88 200 355 103 190 161 304 332 655 143 294 203 418 203 424 0 3 13 33
29 68 61 133 111 245 111 251 0 4 24 57 54 119 30 62 66 142 81 178 15 36 52
112 82 169 51 96 382 757 688 1371 149 299 251 494 276 532 11 14 19 29 19 32
0 2 15 31 33 63 19 32 69 126 112 208 43 83 104 200 135 260 31 61 68 130 82
155 87 155 139 253 253 480 70 140 135 266 145 280 9 14 53 90 97 170 77 139
128 236 263 495 34 66 70 134 80 150 19 33 69 126 173 320 104 196 196 367
243 450 46 84 133 244 196 365 34 63 80 149 103 190 23 41 59 107 79 145 20
39 48 90 62 115 15 25 51 92 81 150 31 58 63 116 73 130 20 29 59 98 110 195
20 39 62 113 92 165 30 52 83 149 118 215 34 66 79 149 100 185 21 36 59 106
85 155 106 199 118 221 135 245 9 14 47 81 85 150 37 69 79 143 93 165 14 22
51 87 82 145 32 58 87 158 124 224 36 65 66 120 66 123 0 2 14 24 30 48 17 24
30 46 30 49 0 3 17 33 37 68 68 115 83 142 153 283 119 243 130 274 130 379
-1 121 -1 121 -168 123 -94 1 -151 -2 -182 -12z"/>
</g>
</svg>
